<?xml version="1.0" encoding="UTF-8" standalone="no"?>
<!-- Uploaded to: SVG Repo, www.svgrepo.com, Generator: SVG Repo Mixer Tools -->

<svg
   width="450.41251"
   height="625.13129"
   viewBox="0 0 18.0165 25.005251"
   style="clip-rule:evenodd;fill-rule:evenodd;stroke-linejoin:round;stroke-miterlimit:1.41421"
   version="1.1"
   xml:space="preserve"
   id="svg8"
   sodipodi:docname="temp-attribute-option.svg"
   xmlns:inkscape="http://www.inkscape.org/namespaces/inkscape"
   xmlns:sodipodi="http://sodipodi.sourceforge.net/DTD/sodipodi-0.dtd"
   xmlns="http://www.w3.org/2000/svg"
   xmlns:svg="http://www.w3.org/2000/svg"><defs
     id="defs8"><inkscape:path-effect
       effect="fillet_chamfer"
       id="path-effect32"
       is_visible="true"
       lpeversion="1"
       nodesatellites_param="F,0,0,1,0,0,0,1 @ F,0,0,1,0,0,0,1 @ F,0,0,1,0,0,0,1 @ F,0,0,1,0,0,0,1 @ F,0,0,1,0,0,0,1 @ F,0,0,1,0,0,0,1 @ F,0,0,1,0,0,0,1 @ F,0,0,1,0,0,0,1"
       radius="0"
       unit="px"
       method="auto"
       mode="F"
       chamfer_steps="1"
       flexible="false"
       use_knot_distance="true"
       apply_no_radius="true"
       apply_with_radius="true"
       only_selected="false"
       hide_knots="false" /></defs><sodipodi:namedview
     id="namedview8"
     pagecolor="#505050"
     bordercolor="#ffffff"
     borderopacity="1"
     inkscape:showpageshadow="0"
     inkscape:pageopacity="0"
     inkscape:pagecheckerboard="1"
     inkscape:deskcolor="#505050"
     showgrid="false"
     inkscape:export-bgcolor="#ffffff00" /><path
     d="M 16.021252,-2.3162841e-8 C 16.562252,0.00399998 17.098252,0.23799998 17.468252,0.63299998 c 0.341,0.364 0.538,0.86100002 0.54,1.36100002 0.011,7.0040015 0.011,14.008001 0,21.012 -0.003,0.643 -0.332,1.276 -0.871,1.645 -0.329,0.225 -0.728,0.347 -1.123,0.349 -4.671,0.007 -9.3410001,0.007 -14.0120001,0 -0.471,-0.002 -0.938,-0.175 -1.29400003,-0.48 -0.436,-0.373 -0.697,-0.938 -0.7,-1.514 -0.011,-7.003999 -0.011,-14.0079985 0,-21.012 0.003,-0.621 0.309,-1.23400002 0.817,-1.60700002 C 1.1662519,0.13699998 1.5862519,9.9997684e-4 2.0072519,-2.3162841e-8 Z"
     style="fill:#a52a2a;fill-opacity:1;fill-rule:nonzero"
     id="path29"
     sodipodi:nodetypes="ccccccccccccc" /><path
     height="14"
     style="fill:#eec09e;fill-opacity:1"
     width="7"
     x="18.008249"
     y="7.5762973"
     id="path30"
     inkscape:path-effect="#path-effect32"
     sodipodi:type="rect"
     d="m 19.161402,7.5762973 h 4.693694 c 0.638847,0 1.153153,0.5143063 1.153153,1.1531532 V 20.423144 c 0,0.638847 -0.514306,1.153153 -1.153153,1.153153 h -4.693694 c -0.638846,0 -1.153153,-0.514306 -1.153153,-1.153153 V 8.7294505 c 0,-0.6388469 0.514307,-1.1531532 1.153153,-1.1531532 z"
     ry="1.1531532"
     transform="matrix(0,-1.1509715,1.081405,0,-6.7546291,44.022755)" /><rect
     style="fill:#000000;fill-opacity:1;stroke:none;stroke-width:0.246981;stroke-linejoin:round;paint-order:stroke markers fill"
     id="rect31"
     width="10.020433"
     height="0.75715935"
     x="4.6920795"
     y="16.605534" /><rect
     style="fill:#000000;fill-opacity:1;stroke:none;stroke-width:0.10742;stroke-linejoin:round;paint-order:stroke markers fill"
     id="rect32"
     width="1.8955308"
     height="0.75715935"
     x="1.9546566"
     y="16.605534" /></svg>
