<?xml version="1.0" encoding="UTF-8" standalone="no"?>
<!-- Uploaded to: SVG Repo, www.svgrepo.com, Generator: SVG Repo Mixer Tools -->

<svg
   width="450.41251"
   height="625.13129"
   viewBox="0 0 18.0165 25.005251"
   style="clip-rule:evenodd;fill-rule:evenodd;stroke-linejoin:round;stroke-miterlimit:1.41421"
   version="1.1"
   xml:space="preserve"
   id="svg8"
   sodipodi:docname="temp-attribute-option.svg"
   xmlns:inkscape="http://www.inkscape.org/namespaces/inkscape"
   xmlns:sodipodi="http://sodipodi.sourceforge.net/DTD/sodipodi-0.dtd"
   xmlns="http://www.w3.org/2000/svg"
   xmlns:svg="http://www.w3.org/2000/svg"><defs
     id="defs8"><inkscape:path-effect
       effect="fillet_chamfer"
       id="path-effect26"
       is_visible="true"
       lpeversion="1"
       nodesatellites_param="F,0,0,1,0,0,0,1 @ F,0,0,1,0,0,0,1 @ F,0,0,1,0,0,0,1 @ F,0,0,1,0,0,0,1 @ F,0,0,1,0,0,0,1 @ F,0,0,1,0,0,0,1 @ F,0,0,1,0,0,0,1 @ F,0,0,1,0,0,0,1"
       radius="0"
       unit="px"
       method="auto"
       mode="F"
       chamfer_steps="1"
       flexible="false"
       use_knot_distance="true"
       apply_no_radius="true"
       apply_with_radius="true"
       only_selected="false"
       hide_knots="false" /></defs><sodipodi:namedview
     id="namedview8"
     pagecolor="#505050"
     bordercolor="#ffffff"
     borderopacity="1"
     inkscape:showpageshadow="0"
     inkscape:pageopacity="0"
     inkscape:pagecheckerboard="1"
     inkscape:deskcolor="#505050"
     showgrid="false"
     inkscape:export-bgcolor="#ffffff00" /><path
     d="M 16.02125,-3.8171387e-7 C 16.56225,0.00399962 17.09825,0.23799962 17.46825,0.63299962 c 0.341,0.364 0.538,0.86099998 0.54,1.36099998 0.011,7.004001 0.011,14.0080014 0,21.0120014 -0.003,0.643 -0.332,1.276 -0.871,1.645 -0.329,0.225 -0.728,0.347 -1.123,0.349 -4.671,0.007 -9.3410003,0.007 -14.0120003,0 -0.471,-0.002 -0.938,-0.175 -1.294,-0.48 -0.436,-0.373 -0.6969998,-0.938 -0.6999998,-1.514 -0.011,-7.004 -0.011,-14.0080004 0,-21.0120014 0.003,-0.621 0.3089998,-1.23399998 0.8169998,-1.60699998 0.341,-0.25 0.761,-0.38600000171 1.182,-0.38700000171387 z"
     style="fill:#a52a2a;fill-opacity:1;fill-rule:nonzero"
     id="path24"
     sodipodi:nodetypes="ccccccccccccc" /><path
     height="14"
     style="fill:#eec09e;fill-opacity:1"
     width="7"
     x="18.008249"
     y="7.5762973"
     id="path25"
     inkscape:path-effect="#path-effect26"
     sodipodi:type="rect"
     d="m 19.161402,7.5762973 h 4.693694 c 0.638847,0 1.153153,0.5143063 1.153153,1.1531532 V 20.423144 c 0,0.638847 -0.514306,1.153153 -1.153153,1.153153 h -4.693694 c -0.638846,0 -1.153153,-0.514306 -1.153153,-1.153153 V 8.7294505 c 0,-0.6388469 0.514307,-1.1531532 1.153153,-1.1531532 z"
     ry="1.1531532"
     transform="matrix(0,-1.1509715,1.081405,0,-6.7546311,44.022755)" /><rect
     style="fill:#d2691e;fill-opacity:1;stroke:none;stroke-width:0.160214;stroke-linejoin:round;paint-order:stroke markers fill"
     id="rect28"
     width="1.8247665"
     height="1.8923963"
     x="2.3392105"
     y="16.037916"
     ry="0.40770119" /><rect
     style="fill:#000000;fill-opacity:1;stroke:none;stroke-width:0.246981;stroke-linejoin:round;paint-order:stroke markers fill"
     id="rect29"
     width="10.020433"
     height="0.75715935"
     x="4.6920776"
     y="16.605534" /></svg>
