<?xml version="1.0" encoding="UTF-8" standalone="no"?>
<!-- Uploaded to: SVG Repo, www.svgrepo.com, Generator: SVG Repo Mixer Tools -->

<svg
   width="450.41248"
   height="625.13129"
   viewBox="0 0 18.016499 25.005251"
   style="clip-rule:evenodd;fill-rule:evenodd;stroke-linejoin:round;stroke-miterlimit:1.41421"
   version="1.1"
   xml:space="preserve"
   id="svg8"
   sodipodi:docname="temp-attribute-option.svg"
   xmlns:inkscape="http://www.inkscape.org/namespaces/inkscape"
   xmlns:sodipodi="http://sodipodi.sourceforge.net/DTD/sodipodi-0.dtd"
   xmlns="http://www.w3.org/2000/svg"
   xmlns:svg="http://www.w3.org/2000/svg"><defs
     id="defs8"><inkscape:path-effect
       effect="fillet_chamfer"
       id="path-effect8"
       is_visible="true"
       lpeversion="1"
       nodesatellites_param="F,0,0,1,0,0,0,1 @ F,0,0,1,0,0,0,1 @ F,0,0,1,0,0,0,1 @ F,0,0,1,0,0,0,1 @ F,0,0,1,0,0,0,1 @ F,0,0,1,0,0,0,1 @ F,0,0,1,0,0,0,1 @ F,0,0,1,0,0,0,1"
       radius="0"
       unit="px"
       method="auto"
       mode="F"
       chamfer_steps="1"
       flexible="false"
       use_knot_distance="true"
       apply_no_radius="true"
       apply_with_radius="true"
       only_selected="false"
       hide_knots="false" /></defs><sodipodi:namedview
     id="namedview8"
     pagecolor="#505050"
     bordercolor="#ffffff"
     borderopacity="1"
     inkscape:showpageshadow="0"
     inkscape:pageopacity="0"
     inkscape:pagecheckerboard="1"
     inkscape:deskcolor="#505050"
     showgrid="false"
     inkscape:export-bgcolor="#ffffff00" /><path
     d="m 16.021249,1.1730957e-6 c 0.541,0.0039999969 1.077,0.2379999969043 1.447,0.6329999969043 0.341,0.364 0.538,0.86100003 0.54,1.36100003 0.011,7.004 0.011,14.0079998 0,21.0119998 -0.003,0.643 -0.332,1.276 -0.871,1.645 -0.329,0.225 -0.728,0.347 -1.123,0.349 -4.671,0.007 -9.3409997,0.007 -14.0119997,0 -0.471,-0.002 -0.9379995,-0.175 -1.29399952,-0.48 -0.436,-0.373 -0.697,-0.938 -0.7,-1.514 -0.011,-7.004 -0.011,-14.0079998 0,-21.0119998 0.003,-0.621 0.309,-1.23400003 0.817,-1.60700003 0.34100002,-0.25 0.76099952,-0.386 1.18199952,-0.3869999969043 z"
     style="fill:#a52a2a;fill-opacity:1;fill-rule:nonzero"
     id="path1"
     sodipodi:nodetypes="ccccccccccccc" /><path
     height="14"
     style="fill:#d2691e;fill-opacity:1"
     width="7"
     x="18.008249"
     y="7.5762973"
     id="rect3"
     inkscape:path-effect="#path-effect8"
     sodipodi:type="rect"
     d="m 19.161402,7.5762973 h 4.693694 c 0.638847,0 1.153153,0.5143063 1.153153,1.1531532 V 20.423144 c 0,0.638847 -0.514306,1.153153 -1.153153,1.153153 h -4.693694 c -0.638846,0 -1.153153,-0.514306 -1.153153,-1.153153 V 8.7294505 c 0,-0.6388469 0.514307,-1.1531532 1.153153,-1.1531532 z"
     ry="1.1531532"
     transform="matrix(0,-0.52693896,1.081405,0,-6.7546312,25.679373)" /></svg>
